<?xml version="1.0" standalone="no"?>
<!DOCTYPE svg PUBLIC "-//W3C//DTD SVG 20010904//EN"
 "http://www.w3.org/TR/2001/REC-SVG-20010904/DTD/svg10.dtd">
<svg version="1.0" xmlns="http://www.w3.org/2000/svg"
 width="341.000000pt" height="341.000000pt" viewBox="0 0 341.000000 341.000000"
 preserveAspectRatio="xMidYMid meet">
<metadata>
Created by potrace 1.13, written by Peter Selinger 2001-2015
</metadata>
<g transform="translate(0.000000,341.000000) scale(0.100000,-0.100000)"
fill="#FFFFFF" stroke="none">
<path d="M1638 3376 c-56 -20 -85 -42 -113 -84 -74 -112 -32 -262 89 -318 59
-28 111 -30 163 -9 93 39 143 112 143 207 0 142 -153 253 -282 204z"/>
<path d="M1432 2844 c-181 -124 -289 -236 -324 -338 -9 -28 -17 -42 -17 -31
-1 25 34 103 56 127 9 10 14 20 11 23 -7 7 -163 -47 -271 -95 l-94 -41 0 -67
c0 -40 -7 -83 -17 -107 -22 -51 -87 -118 -137 -140 -37 -17 -39 -20 -39 -64 0
-53 24 -235 39 -303 38 -168 110 -257 185 -228 40 15 48 43 49 184 3 223 23
231 273 105 133 -67 171 -81 220 -85 71 -6 111 14 137 69 48 101 2 168 -208
302 -103 66 -165 121 -165 148 0 24 26 74 42 80 9 4 8 6 -3 6 -19 1 -69 38
-69 51 0 5 11 -2 25 -15 37 -38 70 -32 174 31 111 67 150 80 189 62 34 -17 50
-73 51 -183 1 -106 18 -235 36 -278 29 -70 104 -109 168 -87 80 26 106 88 119
280 13 200 17 226 37 251 18 23 59 29 97 16 19 -7 23 -3 28 27 6 34 45 76 70
76 6 0 -3 -9 -21 -19 -41 -26 -53 -73 -26 -109 11 -15 67 -52 124 -82 83 -45
108 -63 124 -93 18 -34 19 -39 5 -64 -9 -16 -72 -67 -145 -116 -201 -135 -242
-182 -232 -264 6 -54 44 -98 98 -114 51 -16 126 8 274 86 154 81 195 94 229
71 14 -9 28 -27 32 -41 5 -21 9 -23 26 -14 53 29 126 -22 164 -114 10 -26 22
-47 25 -47 17 0 54 195 65 341 l7 97 -31 7 c-43 9 -116 77 -143 132 -16 33
-23 67 -24 116 l-1 70 -100 45 c-141 63 -267 102 -359 111 -77 8 -78 8 -22 10
31 0 57 5 57 10 0 13 -141 131 -239 201 -79 57 -85 60 -105 45 -102 -74 -218
-79 -319 -15 l-45 28 -80 -54z"/>
<path d="M412 2670 c-158 -38 -221 -233 -114 -353 71 -78 164 -97 259 -52 121
56 160 212 79 318 -54 70 -146 106 -224 87z"/>
<path d="M2879 2622 c-132 -69 -158 -240 -52 -345 135 -135 367 -38 366 153 0
123 -99 220 -226 220 -19 0 -59 -13 -88 -28z"/>
<path d="M2564 1835 c-24 -25 -25 -27 -22 -163 3 -151 -6 -185 -56 -198 -26
-6 -116 27 -237 87 -184 92 -282 88 -335 -13 -21 -41 -17 -79 15 -130 29 -45
74 -79 281 -207 107 -65 123 -106 65 -163 l-24 -25 29 -22 c17 -12 30 -26 30
-31 0 -5 -12 2 -26 17 -36 35 -72 27 -185 -41 -188 -114 -217 -95 -230 147
-13 224 -32 292 -93 332 -32 21 -110 21 -142 0 -60 -39 -79 -106 -93 -325 -5
-80 -14 -157 -20 -173 -15 -39 -54 -52 -107 -34 l-42 14 5 -32 c4 -26 -1 -39
-24 -65 -27 -31 -36 -34 -94 -36 l-64 -2 55 6 c66 8 107 32 116 69 11 43 -15
74 -114 134 -202 121 -200 157 13 284 221 131 275 204 228 302 -22 47 -66 73
-124 73 -57 0 -102 -15 -252 -87 -142 -67 -205 -79 -231 -42 -9 13 -16 33 -16
45 0 30 -8 34 -41 17 -23 -11 -36 -12 -63 -3 -42 14 -58 31 -89 97 l-24 53
-17 -63 c-24 -89 -44 -200 -52 -287 l-6 -76 41 -19 c92 -41 145 -137 139 -249
l-3 -66 110 -54 c115 -56 272 -116 306 -116 11 0 18 -4 15 -8 -9 -15 127 -135
256 -226 l66 -46 52 32 c88 55 208 51 296 -8 l37 -26 81 56 c184 124 306 251
333 344 13 46 13 46 9 8 -3 -22 -19 -61 -35 -88 -17 -26 -27 -48 -22 -48 23 0
169 57 271 106 l118 56 4 87 c3 77 7 94 33 137 27 42 98 103 137 116 17 6 -5
186 -37 316 -55 217 -145 313 -221 237z"/>
<path d="M331 1194 c-120 -60 -157 -212 -77 -317 46 -60 107 -92 176 -91 194
3 289 233 152 367 -74 72 -160 86 -251 41z"/>
<path d="M2916 1195 c-111 -39 -171 -143 -146 -253 16 -71 84 -144 150 -162
219 -58 373 204 211 360 -67 66 -136 83 -215 55z"/>
<path d="M1650 451 c-93 -28 -151 -95 -166 -189 -14 -86 50 -190 138 -227 127
-52 275 37 294 177 20 145 -130 280 -266 239z"/>
</g>
</svg>
